# xmcd CD database file
#
# Track frame offsets:
#	150
#	15912
#	28012
#	41890
#	61450
#	74392
#	90125
#	104390
#	120715
#	133165
#	149145
#	164852
#
# Disc length: 2388 seconds
#
# Revision: 4
# Processed by: cddbd v1.5.1PL2 Copyright (c) Steve Scherf et al.
# Submitted via: CDex 1.60beta1
#
DISCID=af09520c
DTITLE=Happy Baby - Kolubelnue
DYEAR=1997
DGENRE=Kinderlieder
TTITLE0=Happy Baby - Ты в моем сердце
TTITLE1=Happy Baby - Маленькая розочка
TTITLE2=Happy Baby - Верность и честность
TTITLE3=Happy Baby - Милые маленькие лошадки
TTITLE4=Happy Baby - В лунном сиянии
TTITLE5=Happy Baby - Когда мой малыш видит сны
TTITLE6=Happy Baby - Лорелея
TTITLE7=Happy Baby - Пусть жизнь наполнится радостью
TTITLE8=Happy Baby - Красная стрекоза
TTITLE9=Happy Baby - Мир вам
TTITLE10=Happy Baby - Пушистые облачка
TTITLE11=Happy Baby - Спокойной ночи
EXTD=YEAR: 1997
EXTT0=
EXTT1=
EXTT2=
EXTT3=
EXTT4=
EXTT5=
EXTT6=
EXTT7=
EXTT8=
EXTT9=
EXTT10=
EXTT11=
PLAYORDER=
